<svg xmlns="http://www.w3.org/2000/svg" viewBox="0 0 123 138.67"><defs><style>.cls-1{fill:#fff;}</style></defs><g id="Layer_2" data-name="Layer 2"><g id="Layer_1-2" data-name="Layer 1"><path class="cls-1" d="M117.57,30.69,66.93,1.46a10.81,10.81,0,0,0-10.86,0L5.43,30.69A10.87,10.87,0,0,0,0,40.1V98.57A10.87,10.87,0,0,0,5.43,108l50.64,29.23a10.86,10.86,0,0,0,10.86,0L117.57,108A10.87,10.87,0,0,0,123,98.57V40.1A10.87,10.87,0,0,0,117.57,30.69ZM54.27,108.9,25.9,80.54,54.29,52.16l9.88,10.26L46,80.54,64.19,98.73ZM68.76,87.33l-10-10.13L76.91,59,58.77,40.85l10-10.22L97.1,59Z"/></g></g></svg>