<svg xmlns="http://www.w3.org/2000/svg" viewBox="0 0 109.71 1016.67"><defs><style>.cls-1{fill:none;}.cls-1,.cls-2{stroke:#fff;stroke-miterlimit:10;stroke-width:2px;}.cls-3{fill:#fff;}</style></defs><g id="Layer_2" data-name="Layer 2"><g id="Layer_1-2" data-name="Layer 1"><line class="cls-1" x1="54.85" x2="54.85" y2="1016.67"/><circle class="cls-2" cx="54.85" cy="397.77" r="53.85"/><circle class="cls-2" cx="54.85" cy="238.98" r="53.85"/><circle class="cls-2" cx="54.85" cy="559.75" r="53.85"/><circle class="cls-2" cx="54.85" cy="721.73" r="53.85"/><path class="cls-3" d="M59.85,247.92h-10a2.5,2.5,0,0,0-2.5,2.5v10a2.5,2.5,0,0,0,2.5,2.5h10a2.5,2.5,0,0,0,2.5-2.5v-10A2.5,2.5,0,0,0,59.85,247.92Zm-15-22.5a2.5,2.5,0,0,0-2.5-2.5h-10a2.5,2.5,0,0,0-2.5,2.5v10a2.5,2.5,0,0,0,2.5,2.5h7.48l5.72,10a5,5,0,0,1,4.3-2.5h0l-5-8.79v-3.71h17.5v-5H44.85Zm32.5-2.5h-10a2.5,2.5,0,0,0-2.5,2.5v10a2.5,2.5,0,0,0,2.5,2.5h10a2.5,2.5,0,0,0,2.5-2.5v-10A2.5,2.5,0,0,0,77.35,222.92Z"/><path class="cls-3" d="M45.24,723.29h3.61L47,718.1Zm19-1.56a2.35,2.35,0,1,0,2.34,2.35A2.35,2.35,0,0,0,64.23,721.73ZM75.17,703H34.54a4.69,4.69,0,0,0-4.69,4.69v28.12a4.69,4.69,0,0,0,4.69,4.69H75.17a4.69,4.69,0,0,0,4.68-4.69V707.67A4.69,4.69,0,0,0,75.17,703ZM54.32,731.11H52.67a1.59,1.59,0,0,1-1.48-1.05L50.47,728H43.61l-.72,2.08a1.56,1.56,0,0,1-1.48,1.05H39.76A1.57,1.57,0,0,1,38.28,729l5.25-15.1a2.33,2.33,0,0,1,2.21-1.57h2.6a2.35,2.35,0,0,1,2.22,1.57L55.8,729A1.57,1.57,0,0,1,54.32,731.11Zm16.94-1.57a1.56,1.56,0,0,1-1.56,1.57H68.13a1.56,1.56,0,0,1-1.17-.56,6.9,6.9,0,0,1-2.73.56,7,7,0,0,1,0-14.07,6.75,6.75,0,0,1,2.34.44v-3.56a1.56,1.56,0,0,1,1.56-1.56H69.7a1.56,1.56,0,0,1,1.56,1.56Z"/><path class="cls-3" d="M62.75,1004.88l.93.93a1,1,0,0,1,0,1.42l-8.12,8.12a1,1,0,0,1-1.41,0L46,1007.23a1,1,0,0,1,0-1.42l.92-.93a1,1,0,0,1,1.44,0l4.79,5v-12a1,1,0,0,1,1-1h1.33a1,1,0,0,1,1,1v12l4.8-5a1,1,0,0,1,1.43,0Z"/><path class="cls-3" d="M50.1,397.65a1.16,1.16,0,0,0,1.65,0l.83-.82a1.17,1.17,0,0,0,0-1.66L50,392.55l2.62-2.61a1.17,1.17,0,0,0,0-1.66l-.83-.83a1.17,1.17,0,0,0-1.66,0l-4.27,4.27a1.17,1.17,0,0,0,0,1.66Zm7-.82.83.83a1.18,1.18,0,0,0,1.65,0l4.28-4.28a1.18,1.18,0,0,0,0-1.65l-4.28-4.28a1.16,1.16,0,0,0-1.65,0l-.83.83a1.17,1.17,0,0,0,0,1.66l2.61,2.61-2.61,2.62a1.17,1.17,0,0,0,0,1.66Zm20,12.13H59.36A2.31,2.31,0,0,1,57,411.3H52.51a2.48,2.48,0,0,1-2.4-2.34H32.59a1.17,1.17,0,0,0-1.17,1.17v1.17A4.7,4.7,0,0,0,36.1,416H73.6a4.7,4.7,0,0,0,4.69-4.69v-1.17A1.18,1.18,0,0,0,77.12,409ZM73.6,382a3.52,3.52,0,0,0-3.51-3.52H39.62A3.53,3.53,0,0,0,36.1,382v24.61H73.6Zm-4.68,19.92H40.79V383.18H68.92Z"/><path class="cls-3" d="M65.79,536H45a4.46,4.46,0,0,0-4.46,4.46v38.66A4.47,4.47,0,0,0,45,583.55H65.79a4.47,4.47,0,0,0,4.46-4.47V540.42A4.46,4.46,0,0,0,65.79,536ZM55.38,580.57a3,3,0,1,1,3-3A3,3,0,0,1,55.38,580.57Zm10.41-10a1.12,1.12,0,0,1-1.11,1.12H46.09A1.12,1.12,0,0,1,45,570.53v-29a1.12,1.12,0,0,1,1.12-1.12H64.68a1.12,1.12,0,0,1,1.11,1.12Z"/></g></g></svg>