<svg xmlns="http://www.w3.org/2000/svg" viewBox="0 0 549.11 508.75"><defs><style>.cls-1{stroke:#fff;stroke-miterlimit:10;stroke-width:3px;}.cls-2{fill:#fff;}</style></defs><g id="Layer_2" data-name="Layer 2"><g id="Layer_1-2" data-name="Layer 1"><circle class="cls-1" cx="448.16" cy="407.8" r="99.45"/><path class="cls-2" d="M430.4,410.68h6.67l-3.34-9.59Zm35.07-2.88a4.33,4.33,0,1,0,4.33,4.33A4.33,4.33,0,0,0,465.47,407.8Zm20.2-34.63h-75a8.66,8.66,0,0,0-8.65,8.66v51.94a8.65,8.65,0,0,0,8.65,8.65h75a8.66,8.66,0,0,0,8.66-8.65V381.83A8.66,8.66,0,0,0,485.67,373.17Zm-38.49,51.94h-3.05a2.9,2.9,0,0,1-2.73-1.94l-1.33-3.83H427.4l-1.33,3.83a2.9,2.9,0,0,1-2.73,1.94h-3.06a2.88,2.88,0,0,1-2.72-3.83l9.68-27.89a4.33,4.33,0,0,1,4.09-2.9h4.81a4.33,4.33,0,0,1,4.09,2.91l9.68,27.88A2.89,2.89,0,0,1,447.18,425.11Zm31.28-2.88a2.88,2.88,0,0,1-2.89,2.88h-2.88a2.84,2.84,0,0,1-2.16-1,13,13,0,1,1-.73-24.15v-6.57a2.88,2.88,0,0,1,2.89-2.88h2.88a2.88,2.88,0,0,1,2.89,2.88Z"/><circle class="cls-1" cx="338.68" cy="200.44" r="171.32"/><path class="cls-2" d="M323.55,200.06a3.72,3.72,0,0,0,5.27,0l2.63-2.63a3.73,3.73,0,0,0,0-5.28l-8.32-8.32,8.32-8.32a3.72,3.72,0,0,0,0-5.27l-2.63-2.64a3.75,3.75,0,0,0-5.28,0L310,181.2a3.72,3.72,0,0,0,0,5.27Zm22.37-2.63,2.63,2.63a3.72,3.72,0,0,0,5.27,0l13.6-13.59a3.74,3.74,0,0,0,0-5.27l-13.6-13.59a3.72,3.72,0,0,0-5.27,0l-2.63,2.63a3.72,3.72,0,0,0,0,5.27l8.32,8.32-8.32,8.33a3.72,3.72,0,0,0,0,5.27Zm63.6,38.6H353a7.34,7.34,0,0,1-7.63,7.45H331.23a7.91,7.91,0,0,1-7.64-7.45H267.85a3.73,3.73,0,0,0-3.73,3.72v3.73A15,15,0,0,0,279,258.39h119.3a15,15,0,0,0,14.91-14.91v-3.73A3.73,3.73,0,0,0,409.52,236Zm-11.19-85.75a11.21,11.21,0,0,0-11.18-11.18H290.22A11.22,11.22,0,0,0,279,150.28v78.29h119.3Zm-14.91,63.38H294V154h89.47Z"/><circle class="cls-1" cx="118.99" cy="387.11" r="73.65"/><path class="cls-2" d="M134,354.57H105.47a6.11,6.11,0,0,0-6.1,6.1v52.88a6.11,6.11,0,0,0,6.1,6.1H134a6.1,6.1,0,0,0,6.1-6.1V360.67A6.1,6.1,0,0,0,134,354.57Zm-14.24,61a4.07,4.07,0,1,1,4.07-4.06A4.06,4.06,0,0,1,119.71,415.58ZM134,401.86a1.53,1.53,0,0,1-1.53,1.52H107a1.53,1.53,0,0,1-1.53-1.52V362.2a1.54,1.54,0,0,1,1.53-1.53h25.42A1.54,1.54,0,0,1,134,362.2Z"/><circle class="cls-1" cx="100.95" cy="100.95" r="99.45"/><path class="cls-2" d="M110.18,117.45H91.71a4.62,4.62,0,0,0-4.61,4.62v18.46a4.62,4.62,0,0,0,4.61,4.62h18.47a4.62,4.62,0,0,0,4.62-4.62V122.07A4.62,4.62,0,0,0,110.18,117.45ZM82.48,75.9a4.62,4.62,0,0,0-4.61-4.62H59.4a4.62,4.62,0,0,0-4.62,4.62V94.37A4.61,4.61,0,0,0,59.4,99H73.21l10.55,18.47a9.2,9.2,0,0,1,7.95-4.62h.05L82.48,96.6V89.75H114.8V80.52H82.48Zm60-4.62H124a4.62,4.62,0,0,0-4.62,4.62V94.37A4.61,4.61,0,0,0,124,99H142.5a4.6,4.6,0,0,0,4.61-4.61V75.9A4.61,4.61,0,0,0,142.5,71.28Z"/></g></g></svg>