<svg xmlns="http://www.w3.org/2000/svg" viewBox="0 0 1834.5 1432.61"><defs><style>.cls-1{opacity:0.51;}.cls-2{fill:none;stroke:#fff;stroke-miterlimit:10;stroke-width:0.25px;}</style></defs><g id="Layer_2" data-name="Layer 2"><g id="Layer_1-2" data-name="Layer 1"><g class="cls-1"><path class="cls-2" d="M1452.82,100.74,820,50.49a118,118,0,0,0-106.54,50.72L353.49,624.15a118,118,0,0,0-9.34,117.63L617.06,1315a118,118,0,0,0,97.19,66.9l632.85,50.25a118,118,0,0,0,106.54-50.72l359.94-522.94a118,118,0,0,0,9.34-117.62L1550,167.64A118,118,0,0,0,1452.82,100.74Z"/><path class="cls-2" d="M1419.56,95.74,786.71,45.49A118,118,0,0,0,680.18,96.21L320.23,619.15a118,118,0,0,0-9.34,117.63L583.8,1310a118,118,0,0,0,97.2,66.89l632.85,50.25a118,118,0,0,0,106.53-50.72l359.94-522.94a118,118,0,0,0,9.34-117.62L1516.75,162.64A118,118,0,0,0,1419.56,95.74Z"/><path class="cls-2" d="M1386.3,90.74,753.45,40.49A118,118,0,0,0,646.92,91.21L287,614.15a118,118,0,0,0-9.34,117.63L550.55,1305a118,118,0,0,0,97.19,66.9l632.85,50.24a118,118,0,0,0,106.53-50.72l360-522.94a118,118,0,0,0,9.34-117.62L1483.5,157.64A118,118,0,0,0,1386.3,90.74Z"/><path class="cls-2" d="M1353.05,85.74,720.2,35.49A118,118,0,0,0,613.66,86.21L253.72,609.15a118,118,0,0,0-9.34,117.63L517.29,1300a118,118,0,0,0,97.19,66.9l632.85,50.25a118,118,0,0,0,106.54-50.73l359.94-522.94a118,118,0,0,0,9.34-117.62L1450.24,152.64A118,118,0,0,0,1353.05,85.74Z"/><path class="cls-2" d="M1319.79,80.74,686.94,30.49A118,118,0,0,0,580.41,81.22L220.46,604.16a118,118,0,0,0-9.34,117.62L484,1295a118,118,0,0,0,97.2,66.9l632.85,50.25a118,118,0,0,0,106.53-50.73l359.94-522.94a118,118,0,0,0,9.34-117.62L1417,147.64A118,118,0,0,0,1319.79,80.74Z"/><path class="cls-2" d="M1286.53,75.74,653.68,25.49A118,118,0,0,0,547.15,76.22L187.21,599.16a118,118,0,0,0-9.34,117.62L450.78,1290a118,118,0,0,0,97.19,66.9l632.85,50.25a118,118,0,0,0,106.53-50.73l360-522.94a118,118,0,0,0,9.34-117.62L1383.73,142.64A118,118,0,0,0,1286.53,75.74Z"/><path class="cls-2" d="M1253.28,70.74,620.43,20.49A118,118,0,0,0,513.89,71.22L154,594.16a118,118,0,0,0-9.34,117.62L417.52,1285a118,118,0,0,0,97.19,66.9l632.85,50.25a118,118,0,0,0,106.54-50.73L1614,828.45a118,118,0,0,0,9.34-117.62L1350.47,137.64A118,118,0,0,0,1253.28,70.74Z"/><path class="cls-2" d="M1220,65.74,587.17,15.49A118,118,0,0,0,480.64,66.22L120.69,589.16a118,118,0,0,0-9.34,117.62L384.26,1280a118,118,0,0,0,97.2,66.9l632.85,50.25a118,118,0,0,0,106.53-50.73l359.94-522.94a118,118,0,0,0,9.34-117.62L1317.21,132.64A118,118,0,0,0,1220,65.74Z"/><path class="cls-2" d="M1186.76,60.74,553.91,10.49A118,118,0,0,0,447.38,61.22L87.44,584.16A118,118,0,0,0,78.1,701.78L351,1275a118,118,0,0,0,97.19,66.9l632.85,50.25a118,118,0,0,0,106.53-50.72l360-522.94a118,118,0,0,0,9.34-117.63L1284,127.64A118,118,0,0,0,1186.76,60.74Z"/><path class="cls-2" d="M1153.51,55.74,520.66,5.5A118,118,0,0,0,414.12,56.22L54.18,579.16a118,118,0,0,0-9.34,117.62L317.75,1270a118,118,0,0,0,97.19,66.9l632.85,50.25a118,118,0,0,0,106.54-50.72l359.94-522.94a118,118,0,0,0,9.34-117.63L1250.7,122.64A118,118,0,0,0,1153.51,55.74Z"/><path class="cls-2" d="M1120.25,50.75,487.4.5A118,118,0,0,0,380.87,51.22L20.92,574.16a118,118,0,0,0-9.34,117.62L284.49,1265a118,118,0,0,0,97.2,66.9l632.85,50.25a118,118,0,0,0,106.53-50.72L1481,808.46a118,118,0,0,0,9.34-117.63l-272.9-573.19A118,118,0,0,0,1120.25,50.75Z"/></g></g></g></svg>