<svg xmlns="http://www.w3.org/2000/svg" viewBox="0 0 889.26 932.99"><defs><style>.cls-1{fill:none;stroke:#fff;stroke-miterlimit:10;stroke-width:0.5px;}</style></defs><g id="Layer_2" data-name="Layer 2"><g id="Layer_1-2" data-name="Layer 1"><path class="cls-1" d="M856.53,287.26,553.85,112.51a65,65,0,0,0-65,0L186.21,287.26a65,65,0,0,0-32.48,56.26V693a65,65,0,0,0,32.48,56.26L488.89,924a64.93,64.93,0,0,0,65,0L856.53,749.28A65,65,0,0,0,889,693V343.52A65,65,0,0,0,856.53,287.26Z"/><path class="cls-1" d="M841.18,276.91,538.5,102.15a65,65,0,0,0-65,0L170.86,276.91a65,65,0,0,0-32.48,56.25V682.67a64.94,64.94,0,0,0,32.48,56.25L473.54,913.68a65,65,0,0,0,65,0L841.18,738.92a64.94,64.94,0,0,0,32.48-56.25V333.16A65,65,0,0,0,841.18,276.91Z"/><path class="cls-1" d="M825.83,266.55,523.15,91.8a65,65,0,0,0-65,0L155.51,266.55A65,65,0,0,0,123,322.81v349.5a65,65,0,0,0,32.48,56.26L458.19,903.32a65,65,0,0,0,65,0L825.83,728.57a65,65,0,0,0,32.48-56.26V322.81A65,65,0,0,0,825.83,266.55Z"/><path class="cls-1" d="M810.48,256.2,507.8,81.44a65,65,0,0,0-65,0L140.16,256.2a65,65,0,0,0-32.48,56.25V662a65,65,0,0,0,32.48,56.25L442.84,893a65,65,0,0,0,65,0L810.48,718.21A65,65,0,0,0,843,662V312.45A64.94,64.94,0,0,0,810.48,256.2Z"/><path class="cls-1" d="M795.13,245.84,492.46,71.09a64.93,64.93,0,0,0-65,0L124.82,245.84A65,65,0,0,0,92.34,302.1V651.6a65,65,0,0,0,32.48,56.26L427.5,882.61a65,65,0,0,0,65,0L795.13,707.86a65,65,0,0,0,32.48-56.26V302.1A65,65,0,0,0,795.13,245.84Z"/><path class="cls-1" d="M779.79,235.48,477.11,60.73a65,65,0,0,0-65,0L109.47,235.48A65,65,0,0,0,77,291.74v349.5a65,65,0,0,0,32.48,56.26L412.15,872.25a64.93,64.93,0,0,0,65,0L779.79,697.5a65,65,0,0,0,32.48-56.26V291.74A65,65,0,0,0,779.79,235.48Z"/><path class="cls-1" d="M764.44,225.13,461.76,50.38a64.93,64.93,0,0,0-65,0L94.12,225.13a65,65,0,0,0-32.48,56.25V630.89a65,65,0,0,0,32.48,56.26L396.8,861.9a65,65,0,0,0,65,0L764.44,687.15a65,65,0,0,0,32.48-56.26V281.38A65,65,0,0,0,764.44,225.13Z"/><path class="cls-1" d="M749.09,214.77,446.41,40a65,65,0,0,0-65,0L78.77,214.77A65,65,0,0,0,46.29,271v349.5a65,65,0,0,0,32.48,56.26L381.45,851.54a64.93,64.93,0,0,0,65,0L749.09,676.79a65,65,0,0,0,32.48-56.26V271A65,65,0,0,0,749.09,214.77Z"/><path class="cls-1" d="M733.74,204.42,431.06,29.66a65,65,0,0,0-65,0L63.43,204.42A65,65,0,0,0,31,260.67V610.18a64.94,64.94,0,0,0,32.48,56.25L366.1,841.19a65,65,0,0,0,65,0L733.74,666.43a64.94,64.94,0,0,0,32.48-56.25V260.67A65,65,0,0,0,733.74,204.42Z"/><path class="cls-1" d="M718.4,194.06,415.72,19.31a64.93,64.93,0,0,0-65,0L48.08,194.06A65,65,0,0,0,15.6,250.32v349.5a65,65,0,0,0,32.48,56.26L350.76,830.83a65,65,0,0,0,65,0L718.4,656.08a65,65,0,0,0,32.48-56.26V250.32A65,65,0,0,0,718.4,194.06Z"/><path class="cls-1" d="M703.05,183.71,400.37,9a65,65,0,0,0-65,0L32.73,183.71A64.94,64.94,0,0,0,.25,240V589.47a65,65,0,0,0,32.48,56.25L335.41,820.47a64.93,64.93,0,0,0,65,0L703.05,645.72a65,65,0,0,0,32.48-56.25V240A64.94,64.94,0,0,0,703.05,183.71Z"/></g></g></svg>