<svg xmlns="http://www.w3.org/2000/svg" viewBox="0 0 1343 1143.73"><defs><style>.cls-1{fill:none;stroke:#fff;stroke-miterlimit:10;stroke-width:0.25px;}</style></defs><g id="Layer_2" data-name="Layer 2"><g id="Layer_1-2" data-name="Layer 1"><path class="cls-1" d="M895.35,3.14,436,126.22a88.37,88.37,0,0,0-62.5,62.5L250.43,648.05a88.4,88.4,0,0,0,22.88,85.38l336.26,336.26a88.36,88.36,0,0,0,85.37,22.87l459.34-123.08a88.39,88.39,0,0,0,62.5-62.49l123.08-459.34A88.4,88.4,0,0,0,1317,362.27L980.72,26A88.4,88.4,0,0,0,895.35,3.14Z"/><path class="cls-1" d="M870.62,7.94,411.28,131a88.4,88.4,0,0,0-62.5,62.5L225.7,652.86a88.38,88.38,0,0,0,22.88,85.37l336.26,336.26a88.38,88.38,0,0,0,85.37,22.88l459.34-123.08a88.4,88.4,0,0,0,62.5-62.5l123.08-459.34a88.38,88.38,0,0,0-22.88-85.37L956,30.82A88.38,88.38,0,0,0,870.62,7.94Z"/><path class="cls-1" d="M845.89,12.74,386.55,135.82a88.42,88.42,0,0,0-62.5,62.5L201,657.66A88.38,88.38,0,0,0,223.85,743l336.26,336.26a88.38,88.38,0,0,0,85.37,22.88l459.34-123.08a88.39,88.39,0,0,0,62.5-62.5L1290.4,457.25a88.38,88.38,0,0,0-22.88-85.37L931.26,35.62A88.38,88.38,0,0,0,845.89,12.74Z"/><path class="cls-1" d="M821.16,17.55,361.82,140.63a88.39,88.39,0,0,0-62.5,62.49L176.24,662.46a88.4,88.4,0,0,0,22.88,85.38L535.38,1084.1A88.4,88.4,0,0,0,620.75,1107l459.34-123.08a88.39,88.39,0,0,0,62.5-62.5l123.08-459.33a88.4,88.4,0,0,0-22.88-85.38L906.53,40.42A88.35,88.35,0,0,0,821.16,17.55Z"/><path class="cls-1" d="M796.43,22.35,337.09,145.43a88.4,88.4,0,0,0-62.5,62.5L151.51,667.27a88.38,88.38,0,0,0,22.88,85.37L510.65,1088.9A88.36,88.36,0,0,0,596,1111.77l459.34-123.08a88.37,88.37,0,0,0,62.5-62.49l123.08-459.34a88.4,88.4,0,0,0-22.88-85.38L881.8,45.23A88.38,88.38,0,0,0,796.43,22.35Z"/><path class="cls-1" d="M771.7,27.15,312.36,150.23a88.37,88.37,0,0,0-62.49,62.5L126.79,672.07a88.36,88.36,0,0,0,22.87,85.37L485.92,1093.7a88.38,88.38,0,0,0,85.37,22.88L1030.63,993.5a88.4,88.4,0,0,0,62.5-62.5l123.08-459.34a88.38,88.38,0,0,0-22.88-85.37L857.07,50A88.38,88.38,0,0,0,771.7,27.15Z"/><path class="cls-1" d="M747,32,287.63,155a88.39,88.39,0,0,0-62.49,62.5L102.06,676.87a88.35,88.35,0,0,0,22.87,85.37L461.19,1098.5a88.38,88.38,0,0,0,85.37,22.88L1005.9,998.3a88.39,88.39,0,0,0,62.5-62.5l123.08-459.34a88.38,88.38,0,0,0-22.88-85.37L832.35,54.83A88.37,88.37,0,0,0,747,32Z"/><path class="cls-1" d="M722.24,36.76,262.9,159.84a88.35,88.35,0,0,0-62.49,62.5L77.33,681.67a88.37,88.37,0,0,0,22.87,85.38l336.26,336.26a88.37,88.37,0,0,0,85.38,22.87L981.17,1003.1a88.37,88.37,0,0,0,62.5-62.49l123.08-459.34a88.42,88.42,0,0,0-22.87-85.38L807.62,59.63A88.42,88.42,0,0,0,722.24,36.76Z"/><path class="cls-1" d="M697.51,41.56,238.17,164.64a88.37,88.37,0,0,0-62.49,62.5L52.6,686.48a88.36,88.36,0,0,0,22.87,85.37l336.26,336.26A88.4,88.4,0,0,0,497.11,1131l459.33-123.08a88.39,88.39,0,0,0,62.5-62.5L1142,486.07a88.4,88.4,0,0,0-22.87-85.37L782.89,64.44A88.4,88.4,0,0,0,697.51,41.56Z"/><path class="cls-1" d="M672.78,46.36,213.45,169.44a88.39,88.39,0,0,0-62.5,62.5L27.87,691.28a88.4,88.4,0,0,0,22.87,85.37L387,1112.91a88.4,88.4,0,0,0,85.38,22.88l459.34-123.08a88.37,88.37,0,0,0,62.49-62.5l123.08-459.34a88.4,88.4,0,0,0-22.87-85.37L758.16,69.24A88.4,88.4,0,0,0,672.78,46.36Z"/><path class="cls-1" d="M648.05,51.17,188.72,174.25a88.35,88.35,0,0,0-62.5,62.49L3.14,696.08A88.42,88.42,0,0,0,26,781.46l336.26,336.26a88.42,88.42,0,0,0,85.38,22.87L907,1017.51A88.37,88.37,0,0,0,969.48,955l123.08-459.33a88.37,88.37,0,0,0-22.87-85.38L733.43,74A88.37,88.37,0,0,0,648.05,51.17Z"/></g></g></svg>